<mxfile host="app.diagrams.net" modified="2023-02-14T07:45:08.849Z" agent="5.0 (Macintosh)" etag="NdH4ey_FoSp7kB4MROUe" version="20.8.20" type="github">
  <diagram name="Page-1" id="t4EVRYhD11pjJ2Vkq8i-">
    <mxGraphModel dx="1434" dy="794" grid="1" gridSize="10" guides="1" tooltips="1" connect="1" arrows="1" fold="1" page="1" pageScale="1" pageWidth="850" pageHeight="1100" math="0" shadow="0">
      <root>
        <mxCell id="0" />
        <mxCell id="1" parent="0" />
        <mxCell id="K94HRNuP3XekMzOQDXey-5" value="" style="aspect=fixed;perimeter=ellipsePerimeter;html=1;align=center;shadow=0;dashed=0;spacingTop=3;image;image=img/lib/active_directory/database.svg;" vertex="1" parent="1">
          <mxGeometry x="127.5" y="190" width="50" height="37" as="geometry" />
        </mxCell>
        <mxCell id="K94HRNuP3XekMzOQDXey-6" value="" style="aspect=fixed;perimeter=ellipsePerimeter;html=1;align=center;shadow=0;dashed=0;spacingTop=3;image;image=img/lib/active_directory/database.svg;" vertex="1" parent="1">
          <mxGeometry x="247.5" y="190" width="50" height="37" as="geometry" />
        </mxCell>
        <mxCell id="K94HRNuP3XekMzOQDXey-7" value="" style="aspect=fixed;perimeter=ellipsePerimeter;html=1;align=center;shadow=0;dashed=0;spacingTop=3;image;image=img/lib/active_directory/database.svg;" vertex="1" parent="1">
          <mxGeometry x="350" y="190" width="50" height="37" as="geometry" />
        </mxCell>
        <mxCell id="K94HRNuP3XekMzOQDXey-8" value="" style="aspect=fixed;perimeter=ellipsePerimeter;html=1;align=center;shadow=0;dashed=0;spacingTop=3;image;image=img/lib/active_directory/database.svg;" vertex="1" parent="1">
          <mxGeometry x="457.5" y="190" width="50" height="37" as="geometry" />
        </mxCell>
        <mxCell id="K94HRNuP3XekMzOQDXey-12" value="Amex Booking Exceptions " style="whiteSpace=wrap;html=1;verticalAlign=top;shadow=0;dashed=0;spacingTop=3;labelBackgroundColor=default;" vertex="1" parent="1">
          <mxGeometry x="100" y="240" width="110" height="40" as="geometry" />
        </mxCell>
        <mxCell id="K94HRNuP3XekMzOQDXey-14" value="&lt;div&gt;WWER&lt;br&gt;&lt;/div&gt;&lt;div&gt;Exceptions&lt;/div&gt;" style="whiteSpace=wrap;html=1;verticalAlign=top;shadow=0;dashed=0;spacingTop=3;labelBackgroundColor=default;" vertex="1" parent="1">
          <mxGeometry x="220" y="240" width="110" height="40" as="geometry" />
        </mxCell>
        <mxCell id="K94HRNuP3XekMzOQDXey-15" value="&lt;div&gt;Car Rental&lt;/div&gt;&lt;div&gt;Exceptions&lt;/div&gt;" style="whiteSpace=wrap;html=1;verticalAlign=top;shadow=0;dashed=0;spacingTop=3;labelBackgroundColor=default;" vertex="1" parent="1">
          <mxGeometry x="335" y="240" width="95" height="40" as="geometry" />
        </mxCell>
        <mxCell id="K94HRNuP3XekMzOQDXey-16" value="&lt;div&gt;Card&lt;/div&gt;&lt;div&gt;Exceptions&lt;/div&gt;" style="whiteSpace=wrap;html=1;verticalAlign=top;shadow=0;dashed=0;spacingTop=3;labelBackgroundColor=default;" vertex="1" parent="1">
          <mxGeometry x="440" y="240" width="90" height="40" as="geometry" />
        </mxCell>
        <mxCell id="K94HRNuP3XekMzOQDXey-30" value="" style="ellipse;html=1;shape=endState;fillColor=#000000;strokeColor=#ff0000;" vertex="1" parent="1">
          <mxGeometry x="297.5" y="860" width="30" height="30" as="geometry" />
        </mxCell>
        <mxCell id="K94HRNuP3XekMzOQDXey-51" style="edgeStyle=orthogonalEdgeStyle;rounded=0;orthogonalLoop=1;jettySize=auto;html=1;" edge="1" parent="1" source="K94HRNuP3XekMzOQDXey-34" target="K94HRNuP3XekMzOQDXey-41">
          <mxGeometry relative="1" as="geometry" />
        </mxCell>
        <mxCell id="K94HRNuP3XekMzOQDXey-52" value="Data Validation" style="edgeLabel;html=1;align=center;verticalAlign=middle;resizable=0;points=[];" vertex="1" connectable="0" parent="K94HRNuP3XekMzOQDXey-51">
          <mxGeometry x="-0.225" relative="1" as="geometry">
            <mxPoint as="offset" />
          </mxGeometry>
        </mxCell>
        <mxCell id="K94HRNuP3XekMzOQDXey-34" value="" style="ellipse;html=1;shape=startState;fillColor=#000000;strokeColor=#ff0000;" vertex="1" parent="1">
          <mxGeometry x="300" y="30" width="30" height="30" as="geometry" />
        </mxCell>
        <mxCell id="K94HRNuP3XekMzOQDXey-63" style="edgeStyle=orthogonalEdgeStyle;rounded=0;orthogonalLoop=1;jettySize=auto;html=1;" edge="1" parent="1" source="K94HRNuP3XekMzOQDXey-41" target="K94HRNuP3XekMzOQDXey-56">
          <mxGeometry relative="1" as="geometry" />
        </mxCell>
        <mxCell id="K94HRNuP3XekMzOQDXey-41" value="Collect Exception Data" style="shape=mxgraph.ibm.box;prType=enterprise;fontStyle=0;verticalAlign=top;align=left;spacingLeft=32;spacingTop=4;fillColor=none;rounded=0;whiteSpace=wrap;html=1;strokeColor=#4376BB;strokeWidth=3;dashed=0;container=1;spacing=-4;collapsible=0;expand=0;recursiveResize=0;" vertex="1" parent="1">
          <mxGeometry x="40" y="150" width="550" height="130" as="geometry" />
        </mxCell>
        <mxCell id="K94HRNuP3XekMzOQDXey-77" style="edgeStyle=orthogonalEdgeStyle;rounded=0;orthogonalLoop=1;jettySize=auto;html=1;" edge="1" parent="1" source="K94HRNuP3XekMzOQDXey-56" target="K94HRNuP3XekMzOQDXey-70">
          <mxGeometry relative="1" as="geometry" />
        </mxCell>
        <mxCell id="K94HRNuP3XekMzOQDXey-56" value="Developer verify and confirm" style="shape=mxgraph.ibm.box;prType=enterprise;fontStyle=0;verticalAlign=top;align=left;spacingLeft=32;spacingTop=4;fillColor=none;rounded=0;whiteSpace=wrap;html=1;strokeColor=#4376BB;strokeWidth=3;dashed=0;container=1;spacing=-4;collapsible=0;expand=0;recursiveResize=0;" vertex="1" parent="1">
          <mxGeometry x="40" y="320" width="550" height="150" as="geometry" />
        </mxCell>
        <mxCell id="K94HRNuP3XekMzOQDXey-59" value="" style="edgeStyle=orthogonalEdgeStyle;rounded=0;orthogonalLoop=1;jettySize=auto;html=1;" edge="1" parent="K94HRNuP3XekMzOQDXey-56" target="K94HRNuP3XekMzOQDXey-25">
          <mxGeometry relative="1" as="geometry">
            <mxPoint x="165.5" y="77.49000000000001" as="sourcePoint" />
          </mxGeometry>
        </mxCell>
        <mxCell id="K94HRNuP3XekMzOQDXey-60" value="" style="edgeStyle=orthogonalEdgeStyle;rounded=0;orthogonalLoop=1;jettySize=auto;html=1;" edge="1" parent="K94HRNuP3XekMzOQDXey-56" source="K94HRNuP3XekMzOQDXey-25" target="K94HRNuP3XekMzOQDXey-58">
          <mxGeometry relative="1" as="geometry">
            <Array as="points">
              <mxPoint x="330" y="78" />
              <mxPoint x="330" y="78" />
            </Array>
          </mxGeometry>
        </mxCell>
        <mxCell id="K94HRNuP3XekMzOQDXey-25" value="Send Mail" style="html=1;verticalLabelPosition=bottom;align=center;labelBackgroundColor=#ffffff;verticalAlign=top;strokeWidth=2;strokeColor=#0080F0;shadow=0;dashed=0;shape=mxgraph.ios7.icons.mail;" vertex="1" parent="K94HRNuP3XekMzOQDXey-56">
          <mxGeometry x="260" y="69.24" width="30" height="16.5" as="geometry" />
        </mxCell>
        <mxCell id="K94HRNuP3XekMzOQDXey-58" value="&lt;div&gt;&lt;br&gt;&lt;/div&gt;&lt;div&gt;&lt;br&gt;&lt;/div&gt;&lt;div&gt;Developer&lt;/div&gt;" style="shape=actor;whiteSpace=wrap;html=1;" vertex="1" parent="K94HRNuP3XekMzOQDXey-56">
          <mxGeometry x="420" y="35.120000000000005" width="55" height="84.75" as="geometry" />
        </mxCell>
        <mxCell id="K94HRNuP3XekMzOQDXey-76" value="&lt;div&gt;Exception Report&lt;/div&gt;" style="sketch=0;points=[[0,0,0],[0.25,0,0],[0.5,0,0],[0.75,0,0],[1,0,0],[0,1,0],[0.25,1,0],[0.5,1,0],[0.75,1,0],[1,1,0],[0,0.25,0],[0,0.5,0],[0,0.75,0],[1,0.25,0],[1,0.5,0],[1,0.75,0]];outlineConnect=0;fontColor=#232F3E;gradientColor=#60A337;gradientDirection=north;fillColor=#277116;strokeColor=#ffffff;dashed=0;verticalLabelPosition=bottom;verticalAlign=top;align=center;html=1;fontSize=12;fontStyle=0;aspect=fixed;shape=mxgraph.aws4.resourceIcon;resIcon=mxgraph.aws4.cost_and_usage_report;" vertex="1" parent="K94HRNuP3XekMzOQDXey-56">
          <mxGeometry x="100" y="46.74" width="61.51" height="61.51" as="geometry" />
        </mxCell>
        <mxCell id="K94HRNuP3XekMzOQDXey-70" value="SME verify and confirm" style="shape=mxgraph.ibm.box;prType=enterprise;fontStyle=0;verticalAlign=top;align=left;spacingLeft=32;spacingTop=4;fillColor=none;rounded=0;whiteSpace=wrap;html=1;strokeColor=#4376BB;strokeWidth=3;dashed=0;container=1;spacing=-4;collapsible=0;expand=0;recursiveResize=0;" vertex="1" parent="1">
          <mxGeometry x="41.25" y="510" width="547.5" height="140" as="geometry" />
        </mxCell>
        <mxCell id="K94HRNuP3XekMzOQDXey-73" value="" style="edgeStyle=orthogonalEdgeStyle;rounded=0;orthogonalLoop=1;jettySize=auto;html=1;" edge="1" parent="K94HRNuP3XekMzOQDXey-70" source="K94HRNuP3XekMzOQDXey-74" target="K94HRNuP3XekMzOQDXey-75">
          <mxGeometry relative="1" as="geometry">
            <Array as="points">
              <mxPoint x="330" y="78" />
              <mxPoint x="330" y="78" />
            </Array>
          </mxGeometry>
        </mxCell>
        <mxCell id="K94HRNuP3XekMzOQDXey-74" value="Send Mail" style="html=1;verticalLabelPosition=bottom;align=center;labelBackgroundColor=#ffffff;verticalAlign=top;strokeWidth=2;strokeColor=#0080F0;shadow=0;dashed=0;shape=mxgraph.ios7.icons.mail;" vertex="1" parent="K94HRNuP3XekMzOQDXey-70">
          <mxGeometry x="248.75" y="61.74999999999999" width="30" height="16.5" as="geometry" />
        </mxCell>
        <mxCell id="K94HRNuP3XekMzOQDXey-75" value="&lt;div&gt;&lt;br&gt;&lt;/div&gt;&lt;div&gt;&lt;br&gt;&lt;/div&gt;&lt;div&gt;SME&lt;/div&gt;" style="shape=actor;whiteSpace=wrap;html=1;" vertex="1" parent="K94HRNuP3XekMzOQDXey-70">
          <mxGeometry x="408.75" y="27.62" width="55" height="84.75" as="geometry" />
        </mxCell>
        <mxCell id="K94HRNuP3XekMzOQDXey-81" style="edgeStyle=orthogonalEdgeStyle;rounded=0;orthogonalLoop=1;jettySize=auto;html=1;entryX=-0.067;entryY=0.538;entryDx=0;entryDy=0;entryPerimeter=0;" edge="1" parent="K94HRNuP3XekMzOQDXey-70" source="K94HRNuP3XekMzOQDXey-78" target="K94HRNuP3XekMzOQDXey-74">
          <mxGeometry relative="1" as="geometry" />
        </mxCell>
        <mxCell id="K94HRNuP3XekMzOQDXey-78" value="&lt;div&gt;Exception Report&lt;/div&gt;" style="sketch=0;points=[[0,0,0],[0.25,0,0],[0.5,0,0],[0.75,0,0],[1,0,0],[0,1,0],[0.25,1,0],[0.5,1,0],[0.75,1,0],[1,1,0],[0,0.25,0],[0,0.5,0],[0,0.75,0],[1,0.25,0],[1,0.5,0],[1,0.75,0]];outlineConnect=0;fontColor=#232F3E;gradientColor=#60A337;gradientDirection=north;fillColor=#277116;strokeColor=#ffffff;dashed=0;verticalLabelPosition=bottom;verticalAlign=top;align=center;html=1;fontSize=12;fontStyle=0;aspect=fixed;shape=mxgraph.aws4.resourceIcon;resIcon=mxgraph.aws4.cost_and_usage_report;" vertex="1" parent="K94HRNuP3XekMzOQDXey-70">
          <mxGeometry x="78.75" y="40" width="61.51" height="61.51" as="geometry" />
        </mxCell>
      </root>
    </mxGraphModel>
  </diagram>
</mxfile>
